<?xml version="1.0" encoding="UTF-8"?>
<svg xmlns="http://www.w3.org/2000/svg" viewBox="0 0 64 64" role="img" aria-label="Mind Reclaim icon">
  <!-- Softened mind/head profile (leaf) + clay heart. Abstract oval/profile for small sizes. -->
  <path d="M 27 10 C 36 9.5, 47 14, 51 24 C 53 30, 52.5 36, 49 41 C 46.5 44.5, 44.5 47, 43 50.5 C 41.5 53.5, 38.5 55, 35.5 54 C 33 53, 31.5 50, 30.5 46.5 C 22 44, 15 37, 14.5 28.5 C 14 18.5, 19 10.5, 27 10 Z" fill="none" stroke="#2F6B4F" stroke-width="3.4" stroke-linecap="round" stroke-linejoin="round"/>
  <path d="M 32 41 C 32 41, 21.5 33, 21.5 26 C 21.5 22, 24.5 19.5, 28 19.5 C 30 19.5, 31.3 20.6, 32 22.5 C 32.7 20.6, 34 19.5, 36 19.5 C 39.5 19.5, 42.5 22, 42.5 26 C 42.5 33, 32 41, 32 41 Z" fill="none" stroke="#C45C26" stroke-width="2.8" stroke-linecap="round" stroke-linejoin="round"/>
</svg>
